<?xml version="1.0" encoding="UTF-8" standalone="no"?>
<!DOCTYPE svg PUBLIC "-//W3C//DTD SVG 1.1//EN" "http://www.w3.org/Graphics/SVG/1.1/DTD/svg11.dtd">
<svg viewBox="0 0 513 415" xmlns="http://www.w3.org/2000/svg" style="fill-rule:evenodd;clip-rule:evenodd;stroke-linejoin:round;stroke-miterlimit:2">
  <path d="M252.428 128.872C233.154 8.312 367.638-36.69 430.855 32.848c30.306-3.989 62.102-21.782 66.586-25.174-6.4 19.21-25.246 46.911-46.349 57.19 21.05.079 55.001-12.9 60.921-16.81-11.715 18.011-36.128 43.998-53.27 55.007C461.187 363.829 200.953 490.189 0 368.22c65.164 10.31 134.22-21.077 156.24-43.865-54.468 1.107-91.906-45.291-98.102-71.998 14.963 2.71 36.616 1.81 47.185-2.408-51.019-11.381-84.128-53.979-84.618-103.958 9.91 6.643 33.6 14.874 47.504 12.194C24.291 129.882 7.674 70.183 35.566 18.513c77.02 95.164 175.728 107.565 216.862 110.36z" style="fill:rgb(29,161,242)"/>
</svg>
