<svg xmlns="http://www.w3.org/2000/svg"  viewBox="0 0 16 16" width="16px" height="16px"><path d="M 8.0996094 2 C 6.4496094 2 4.6104687 2.6203906 4.2304688 4.6503906 C 4.1904687 4.8603906 4.3402344 4.9797656 4.4902344 5.0097656 L 6.1601562 5.1894531 C 6.3201563 5.1794531 6.4309375 5.0291406 6.4609375 4.8691406 C 6.6109375 4.1691406 7.1896094 3.8300781 7.8496094 3.8300781 C 8.2096094 3.8300781 8.6103125 3.9692969 8.8203125 4.2792969 C 9.0703125 4.6392969 9.0292969 5.1290625 9.0292969 5.5390625 L 9.0292969 5.7597656 C 8.0292969 5.8797656 6.7192969 5.949375 5.7792969 6.359375 C 4.6992969 6.829375 3.9394531 7.7794531 3.9394531 9.1894531 C 3.9394531 10.989453 5.0692969 11.890625 6.5292969 11.890625 C 7.7592969 11.890625 8.4308594 11.600859 9.3808594 10.630859 C 9.6908594 11.080859 9.7991406 11.299297 10.369141 11.779297 C 10.499141 11.849297 10.659297 11.840234 10.779297 11.740234 L 10.779297 11.75 C 11.129297 11.44 11.759375 10.889609 12.109375 10.599609 C 12.249375 10.479609 12.229375 10.290625 12.109375 10.140625 C 11.799375 9.700625 11.460938 9.3392969 11.460938 8.5292969 L 11.460938 5.8398438 C 11.460938 4.6998438 11.539219 3.649375 10.699219 2.859375 C 10.039219 2.219375 8.9396094 2 8.0996094 2 z M 9.0390625 7.1503906 L 9.0292969 7.5195312 C 9.0292969 8.1995312 9.0509375 8.759375 8.7109375 9.359375 C 8.4409375 9.849375 7.9997656 10.140625 7.5097656 10.140625 C 6.8497656 10.140625 6.4609375 9.640625 6.4609375 8.890625 C 6.4609375 7.420625 7.7790625 7.1503906 9.0390625 7.1503906 z M 13.339844 12.179688 C 12.901719 12.185812 12.384688 12.285047 11.992188 12.560547 C 11.871188 12.645547 11.891391 12.762094 12.025391 12.746094 C 12.467391 12.694094 13.451953 12.576781 13.626953 12.800781 C 13.801953 13.024781 13.431578 13.948328 13.267578 14.361328 C 13.217578 14.485328 13.3245 14.535406 13.4375 14.441406 C 14.1715 13.826406 14.363891 12.537562 14.212891 12.351562 C 14.137891 12.259562 13.777969 12.173563 13.339844 12.179688 z M 1.8300781 12.427734 C 1.7390469 12.439641 1.6989219 12.551672 1.7949219 12.638672 C 3.4299219 14.113672 5.5883281 15 7.9863281 15 C 9.6973281 15 11.686641 14.461219 13.056641 13.449219 C 13.283641 13.282219 13.089422 13.031859 12.857422 13.130859 C 11.320422 13.782859 9.6498594 14.097656 8.1308594 14.097656 C 5.8788594 14.097656 3.6985469 13.479125 1.9355469 12.453125 C 1.8970469 12.430625 1.8604219 12.423766 1.8300781 12.427734 z"/></svg>